<?xml version="1.0" encoding="UTF-8" standalone="no"?>
<svg
   xmlns:dc="http://purl.org/dc/elements/1.1/"
   xmlns:cc="http://creativecommons.org/ns#"
   xmlns:rdf="http://www.w3.org/1999/02/22-rdf-syntax-ns#"
   xmlns:svg="http://www.w3.org/2000/svg"
   xmlns="http://www.w3.org/2000/svg"
   viewBox="0 0 666.66669 666.66669"
   height="666.66669"
   width="666.66669"
   xml:space="preserve"
   id="svg2"
   version="1.1"><metadata
     id="metadata8"><rdf:RDF><cc:Work
         rdf:about=""><dc:format>image/svg+xml</dc:format><dc:type
           rdf:resource="http://purl.org/dc/dcmitype/StillImage" /></cc:Work></rdf:RDF></metadata><defs
     id="defs6"><clipPath
       id="clipPath18"
       clipPathUnits="userSpaceOnUse"><path
         id="path16"
         d="M 0,500 H 500 V 0 H 0 Z" /></clipPath></defs><g
     transform="matrix(1.3333333,0,0,-1.3333333,0,666.66667)"
     id="g10"><g
       id="g12"><g
         clip-path="url(#clipPath18)"
         id="g14"><g
           transform="translate(20.5528,479.4472)"
           id="g20"><path
             id="path22"
             style="fill:#ffffff;fill-opacity:1;fill-rule:nonzero;stroke:none"
             d="M 0,0 H 16.892 C 8.496,-2.182 2.446,-8.264 0,-16.562 Z" /></g><g
           transform="translate(468.4143,479.4472)"
           id="g24"><path
             id="path26"
             style="fill:#ffffff;fill-opacity:1;fill-rule:nonzero;stroke:none"
             d="M 0,0 H 14.942 V -16.661 C 12.694,-8.959 7.207,-3.306 0,0" /></g><g
           transform="translate(106.502,340.6062)"
           id="g28"><path
             id="path30"
             style="fill:#ffffff;fill-opacity:1;fill-rule:nonzero;stroke:none"
             d="m 0,0 c 54.049,-0.132 108.131,0.231 162.18,-0.132 29.718,0.859 58.28,-25.785 56.032,-56.165 -0.033,-42.941 -0.033,-85.883 -0.033,-128.824 h -46.281 c -0.165,37.487 0.331,75.007 -0.198,112.494 0.265,17.355 -14.81,33.619 -32.561,32.826 -30.942,0.43 -61.917,-0.033 -92.859,0.132 V -185.121 H 0 Z" /></g><path
           id="path32"
           style="fill:#ffffff;fill-opacity:1;fill-rule:nonzero;stroke:none"
           d="m 357.738,340.606 h 46.28 V 155.485 h -46.28 z" /><path
           id="path34"
           style="fill:#ffffff;fill-opacity:1;fill-rule:nonzero;stroke:none"
           d="m 192.451,267.88 h 46.28 V 155.485 h -46.28 z" /><g
           transform="translate(20.5528,32.8089)"
           id="g36"><path
             id="path38"
             style="fill:#ffffff;fill-opacity:1;fill-rule:nonzero;stroke:none"
             d="M 0,0 C 2.479,-7.405 7.868,-12.859 14.81,-16.165 H 0 Z" /></g><g
           transform="translate(467.3564,16.6438)"
           id="g40"><path
             id="path42"
             style="fill:#ffffff;fill-opacity:1;fill-rule:nonzero;stroke:none"
             d="M 0,0 C 7.405,2.545 12.793,8 16,15.041 V 0 Z" /></g><path
           id="path44"
           style="fill:#ff4a00;fill-opacity:1;fill-rule:nonzero;stroke:none"
           d="m 192.451,155.485 h 46.28 V 267.88 h -46.28 z m 165.287,0 h 46.28 v 185.121 h -46.28 z M 106.502,340.606 V 155.485 h 46.28 v 145.452 c 30.942,-0.165 61.917,0.298 92.859,-0.132 17.751,0.793 32.826,-15.471 32.561,-32.826 0.529,-37.487 0.033,-75.007 0.198,-112.494 h 46.281 c 0,42.941 0,85.883 0.033,128.824 2.248,30.38 -26.314,57.024 -56.032,56.165 -54.049,0.364 -108.131,0 -162.18,0.132 M 37.445,479.447 h 430.969 c 7.207,-3.306 12.694,-8.958 14.942,-16.661 V 31.685 c -3.206,-7.041 -8.595,-12.496 -16,-15.041 H 35.362 c -6.942,3.306 -12.33,8.76 -14.809,16.165 v 430.076 c 2.446,8.298 8.496,14.38 16.892,16.562" /></g></g></g></svg>